<?xml version="1.0" encoding="UTF-8"?>
<!-- Generator: visioncortex VTracer 0.6.4 -->
<svg version="1.1" xmlns="http://www.w3.org/2000/svg" width="512" height="512">
<path d="M0 0 C3.58 2.75 6.96 5.84 9.27 9.75 C8.15 13.13 7.31 13.73 4.59 15.88 C-2.94 22.32 -7.35 29.88 -8.73 39.75 C-9.41 51.11 -6.26 61.4 1.27 70.04 C5.2 73.64 9.56 76.3 14.27 78.75 C10.58 95.1 -0.58 114.23 -14.73 123.75 C-21.45 127.02 -29.12 126.93 -36.16 124.63 C-37.3 124.17 -38.43 123.72 -39.6 123.25 C-51.33 118.7 -61.03 120.03 -72.51 124.55 C-78.9 126.93 -84.27 127.55 -90.79 125.38 C-106.67 118.02 -117.35 96.56 -123.2 80.93 C-129.81 62.25 -133.13 38.36 -124.73 19.75 C-122.68 15.82 -120.41 12.27 -117.73 8.75 C-116.98 7.77 -116.98 7.77 -116.21 6.76 C-110.01 -0.3 -99.23 -5.54 -89.91 -6.56 C-81.45 -6.89 -74.96 -5.43 -67.12 -2.38 C-58.55 0.87 -52.48 0.11 -44.04 -3.19 C-28.93 -8.92 -14.04 -9.09 0 0 Z " fill="#000000" transform="translate(128.7265625,196.25)"/>
<path d="M0 0 C84.6 0 84.6 0 100.75 15.53 C112.6 28.54 114.9 42.53 114.38 59.52 C113.62 73.55 107.46 85.56 97.23 95.22 C90.71 100.43 83.05 103.89 75 106 C74.34 106.17 73.68 106.35 73 106.53 C68.63 107.22 64.31 107.12 59.89 107.1 C59.03 107.1 58.17 107.1 57.28 107.09 C54.08 107.09 50.89 107.08 47.69 107.06 C40.53 107.04 33.37 107.02 26 107 C26 125.15 26 143.3 26 162 C17.42 162 8.84 162 0 162 C0 108.54 0 55.08 0 0 Z M26 22 C26 42.79 26 63.58 26 85 C31.88 85.08 37.76 85.16 43.81 85.25 C45.64 85.29 47.48 85.32 49.36 85.36 C61.11 85.5 71.35 84.57 80.28 76.06 C87.19 67.78 88.76 58.48 88 48 C86.59 39.88 83.3 33.35 76.74 28.24 C65.88 21.19 54.42 21.74 41.88 21.88 C34.02 21.94 34.02 21.94 26 22 Z " fill="#000000" transform="translate(170,159)"/>
<path d="M0 0 C7.75 6.59 11.73 14.2 13.48 24.11 C14 30.79 13.83 37.51 13.77 44.21 C13.76 46.15 13.76 48.08 13.76 50.02 C13.75 55.07 13.72 60.13 13.68 65.19 C13.65 70.37 13.64 75.54 13.62 80.72 C13.59 90.85 13.54 100.98 13.48 111.11 C5.56 111.11 -2.36 111.11 -10.52 111.11 C-10.85 105.83 -11.18 100.55 -11.52 95.11 C-12.64 96.47 -13.75 97.83 -14.9 99.23 C-22.58 107.83 -32.23 112.71 -43.73 113.42 C-55.64 113.87 -66.37 112.53 -75.85 104.66 C-82.57 98.41 -86.99 90.48 -87.76 81.26 C-87.98 71.66 -86.55 63.64 -80.65 55.86 C-67.23 41.98 -46.01 41.74 -28.02 40.92 C-26.41 40.84 -24.8 40.75 -23.18 40.67 C-19.3 40.47 -15.41 40.28 -11.52 40.11 C-11.75 37.56 -12.01 35.02 -12.27 32.48 C-12.34 31.77 -12.4 31.05 -12.46 30.32 C-13.15 24.03 -15.28 19.94 -20.27 15.86 C-28 11.7 -35 11.53 -43.52 13.11 C-49.48 15 -52.97 18.03 -56.52 23.11 C-57.51 25.09 -58.5 27.07 -59.52 29.11 C-67.11 29.11 -74.7 29.11 -82.52 29.11 C-82.52 19.07 -79.37 11.48 -72.52 4.11 C-54.41 -13.49 -20.32 -14.06 0 0 Z M-31.27 58.86 C-33.11 58.95 -33.11 58.95 -34.98 59.04 C-43.98 59.62 -52.49 60.71 -59.09 67.36 C-61.86 71.06 -63.05 74.47 -62.52 79.11 C-60.87 84.39 -58.29 88.16 -53.52 91.11 C-45.68 94.16 -37.17 94.41 -29.21 91.54 C-21.53 87.99 -16.07 82.76 -12.52 75.11 C-11.54 71.29 -11.42 67.73 -11.46 63.79 C-11.47 62.72 -11.48 61.66 -11.49 60.55 C-11.5 59.75 -11.51 58.94 -11.52 58.11 C-18.13 58.06 -24.68 58.44 -31.27 58.86 Z " fill="#000000" transform="translate(377.5234375,209.89453125)"/>
<path d="M0 0 C8.91 0 17.82 0 27 0 C29.05 4.78 30.78 9.18 32.3 14.11 C32.51 14.78 32.71 15.45 32.93 16.14 C33.61 18.35 34.29 20.55 34.96 22.76 C35.44 24.31 35.92 25.86 36.4 27.41 C37.66 31.48 38.92 35.56 40.17 39.64 C41.44 43.75 42.71 47.85 43.97 51.96 C45.63 57.32 47.28 62.67 48.93 68.03 C49.35 69.4 49.78 70.77 50.2 72.15 C51.2 75.39 52.19 78.63 53.17 81.88 C53.53 83.07 53.89 84.25 54.26 85.47 C54.57 86.52 54.88 87.56 55.21 88.64 C55.78 90.93 55.78 90.93 57 92 C57.27 91.11 57.55 90.23 57.83 89.31 C60.45 80.87 63.07 72.43 65.69 63.99 C67.03 59.65 68.38 55.31 69.72 50.97 C71.02 46.77 72.33 42.57 73.63 38.37 C74.12 36.78 74.61 35.2 75.11 33.61 C78.59 22.35 82.25 11.17 86 0 C94.58 0 103.16 0 112 0 C111.31 4.17 110.66 7.37 109.29 11.25 C108.76 12.76 108.76 12.76 108.22 14.3 C107.84 15.38 107.45 16.46 107.05 17.58 C106.65 18.72 106.25 19.86 105.84 21.04 C104.75 24.14 103.65 27.23 102.56 30.33 C101.64 32.9 100.73 35.48 99.82 38.06 C96.89 46.38 93.95 54.69 91 63 C90.25 65.12 89.5 67.24 88.75 69.36 C84.79 80.52 80.81 91.67 76.79 102.81 C76.02 104.94 75.26 107.07 74.49 109.2 C73.15 112.93 71.8 116.65 70.44 120.38 C69.88 121.92 69.88 121.92 69.32 123.49 C64.37 136.93 58.28 150.82 45.12 158.04 C34.26 162.97 23.73 162.24 12 162 C12 155.07 12 148.14 12 141 C19.13 140.69 19.13 140.69 21.33 140.61 C26.56 140.32 30.74 139.17 34.57 135.49 C38.99 129.08 41.54 123.27 40.47 115.39 C39.53 110.64 37.78 106.16 36.12 101.62 C35.53 99.96 35.53 99.96 34.92 98.27 C33.62 94.66 32.31 91.05 31 87.44 C30.1 84.93 29.19 82.43 28.29 79.92 C25.54 72.28 22.77 64.64 20 57 C19.15 54.64 18.29 52.29 17.44 49.93 C17.03 48.81 16.62 47.68 16.2 46.53 C15.41 44.33 14.61 42.14 13.82 39.94 C11.98 34.88 10.14 29.81 8.29 24.75 C7.63 22.93 6.97 21.11 6.31 19.29 C6.02 18.49 5.72 17.69 5.42 16.87 C3.39 11.28 1.72 5.72 0 0 Z " fill="#000000" transform="translate(400,203)"/>
<path d="M0 0 C0.51 8.29 -0.12 14.61 -4 22 C-4.4 22.77 -4.8 23.54 -5.21 24.34 C-10.03 32.5 -17.82 38.57 -27 41 C-29.55 41.2 -29.55 41.2 -31.88 41.12 C-33.05 41.1 -33.05 41.1 -34.24 41.07 C-35.11 41.04 -35.11 41.04 -36 41 C-36.73 29.92 -32.97 20.59 -26 12 C-19.32 4.79 -9.92 -0.28 0 0 Z " fill="#000000" transform="translate(106,147)"/>
</svg>
